<svg xmlns="http://www.w3.org/2000/svg" width="25.793" height="15.967" viewBox="0 0 25.793 15.967">
  <path id="Path_84456" data-name="Path 84456" d="M27.793,12.141v8.6a1.228,1.228,0,0,1-1.228,1.228H3.228A1.228,1.228,0,0,1,2,20.739v-8.6Zm0-2.456H2V7.228A1.228,1.228,0,0,1,3.228,6H26.564a1.228,1.228,0,0,1,1.228,1.228Zm-9.212,6.141a.614.614,0,0,0,0,1.228h6.141a.614.614,0,0,0,0-1.228Zm2.456,2.456a.614.614,0,1,0,0,1.228h3.685a.614.614,0,0,0,0-1.228Z" transform="translate(-2 -6)" fill="#a0a0a0" fill-rule="evenodd"/>
</svg>
