<svg xmlns="http://www.w3.org/2000/svg" width="20.337" height="20.357" viewBox="0 0 20.337 20.357">
  <g id="noun-edit-4999382" transform="translate(0 -0.001)">
    <path id="Path_4120" data-name="Path 4120" d="M511.283,131.623l-2.036-1.181a.6.6,0,0,0-.448-.054.563.563,0,0,0-.36.271l-.936,1.568,3.06,1.764.9-1.561a.59.59,0,0,0-.183-.807Z" transform="translate(-491.218 -125.99)" fill="#662a09"/>
    <path id="Path_4121" data-name="Path 4121" d="M99.764,36.24a1.961,1.961,0,0,1-1.941-1.825L97.68,32.29a1.886,1.886,0,0,1,.258-1.1L98.4,30.4H90.555V29.04h8.632l1.886-3.271V22.933h-4.75a.679.679,0,0,1-.679-.679V17.5H88.18a.679.679,0,0,0-.679.679v19a.679.679,0,0,0,.679.679h12.215a.678.678,0,0,0,.679-.679V35.826l-.448.224a1.989,1.989,0,0,1-.862.19ZM90.555,25.647h4.072V27H90.555Zm5.429,8.143H90.555V32.433h5.429Z" transform="translate(-87.502 -17.503)" fill="#662a09"/>
    <path id="Path_4122" data-name="Path 4122" d="M332.5,27.824V31.5h3.671Z" transform="translate(-323 -27.423)" fill="#662a09"/>
    <path id="Path_4123" data-name="Path 4123" d="M385.044,215.561a.556.556,0,0,0-.081.333l.136,2.117h0a.59.59,0,0,0,.3.475.557.557,0,0,0,.292.081.626.626,0,0,0,.265-.061l1.9-.943h0a.6.6,0,0,0,.251-.238l4.017-6.956-3.088-1.771Z" transform="translate(-373.426 -201.188)" fill="#662a09"/>
  </g>
</svg>
