<svg xmlns="http://www.w3.org/2000/svg" width="27.438" height="27.438" viewBox="0 0 27.438 27.438">
  <g id="noun-emoji-1636140" transform="translate(-5 -5)">
    <g id="Group_36461" data-name="Group 36461" transform="translate(5 5)">
      <path id="Path_17428" data-name="Path 17428" d="M18.719,5A13.719,13.719,0,1,0,32.438,18.719,13.734,13.734,0,0,0,18.719,5Zm0,25.913A12.194,12.194,0,1,1,30.913,18.719,12.208,12.208,0,0,1,18.719,30.913Z" transform="translate(-5 -5)"/>
      <circle id="Ellipse_407" data-name="Ellipse 407" cx="1.733" cy="1.733" r="1.733" transform="translate(17.4 9.425)"/>
      <circle id="Ellipse_408" data-name="Ellipse 408" cx="1.733" cy="1.733" r="1.733" transform="translate(6.572 9.425)"/>
      <path id="Path_17429" data-name="Path 17429" d="M40.824,58.565a7.464,7.464,0,0,1-9.813,0A.762.762,0,1,0,30,59.7a9.007,9.007,0,0,0,11.842,0,.762.762,0,1,0-1.014-1.138Z" transform="translate(-22.198 -42.101)"/>
    </g>
  </g>
<!-- Code injected by live-server -->
<script>
	// <![CDATA[  <-- For SVG support
	if ('WebSocket' in window) {
		(function () {
			function refreshCSS() {
				var sheets = [].slice.call(document.getElementsByTagName("link"));
				var head = document.getElementsByTagName("head")[0];
				for (var i = 0; i < sheets.length; ++i) {
					var elem = sheets[i];
					var parent = elem.parentElement || head;
					parent.removeChild(elem);
					var rel = elem.rel;
					if (elem.href && typeof rel != "string" || rel.length == 0 || rel.toLowerCase() == "stylesheet") {
						var url = elem.href.replace(/(&|\?)_cacheOverride=\d+/, '');
						elem.href = url + (url.indexOf('?') >= 0 ? '&' : '?') + '_cacheOverride=' + (new Date().valueOf());
					}
					parent.appendChild(elem);
				}
			}
			var protocol = window.location.protocol === 'http:' ? 'ws://' : 'wss://';
			var address = protocol + window.location.host + window.location.pathname + '/ws';
			var socket = new WebSocket(address);
			socket.onmessage = function (msg) {
				if (msg.data == 'reload') window.location.reload();
				else if (msg.data == 'refreshcss') refreshCSS();
			};
			if (sessionStorage && !sessionStorage.getItem('IsThisFirstTime_Log_From_LiveServer')) {
				console.log('Live reload enabled.');
				sessionStorage.setItem('IsThisFirstTime_Log_From_LiveServer', true);
			}
		})();
	}
	else {
		console.error('Upgrade your browser. This Browser is NOT supported WebSocket for Live-Reloading.');
	}
	// ]]>
</script>
</svg>
