<svg xmlns="http://www.w3.org/2000/svg" width="28" height="20" viewBox="0 0 28 20">
  <g id="Group_65507" data-name="Group 65507" transform="translate(-2 -6)">
    <path id="Path_84526" data-name="Path 84526" d="M27,6H5A3,3,0,0,0,2,9V23a3,3,0,0,0,3,3H27a3,3,0,0,0,3-3V9A3,3,0,0,0,27,6Zm1,17a1,1,0,0,1-1,1H5a1,1,0,0,1-1-1V9A1,1,0,0,1,5,8H27a1,1,0,0,1,1,1Z"/>
    <path id="Path_84527" data-name="Path 84527" d="M25.5,17h-6a1,1,0,0,0,0,2h6a1,1,0,0,0,0-2Zm0-4h-6a1,1,0,0,0,0,2h6a1,1,0,0,0,0-2ZM13.514,16.883H8.986A2.259,2.259,0,0,0,6.729,19.14v2.146a1,1,0,0,0,2,0V19.14a.257.257,0,0,1,.256-.257h4.528a.257.257,0,0,1,.256.257v2.146a1,1,0,0,0,2,0V19.14A2.259,2.259,0,0,0,13.514,16.883ZM11.25,15.856a3.07,3.07,0,1,0-3.07-3.07A3.074,3.074,0,0,0,11.25,15.856Zm0-4.141a1.07,1.07,0,1,1-1.07,1.07A1.072,1.072,0,0,1,11.25,11.715Z"/>
  </g>
</svg>
